<svg width="15" height="16" viewBox="0 0 15 16" fill="none" xmlns="http://www.w3.org/2000/svg">
<path fill-rule="evenodd" clip-rule="evenodd" d="M3 14.0002H12V5.00024H3V14.0002ZM7 3.00024H8V2.00024H7V3.00024ZM14.39 3.07924C14.27 3.02824 14.138 3.00024 14 3.00024H10V1.62324C10 0.727244 9.274 0.000244141 8.378 0.000244141H6.622C5.726 0.000244141 5 0.727244 5 1.62324V3.00024H1C0.862 3.00024 0.73 3.02824 0.61 3.07924C0.394 3.17024 0.225 3.34324 0.118 3.55224C0.049 3.68824 0 3.83624 0 4.00024C0 4.13824 0.028 4.27024 0.078 4.38924C0.23 4.74824 0.586 5.00024 1 5.00024V14.3922C1 15.2802 1.72 16.0002 2.608 16.0002H12.392C13.28 16.0002 14 15.2802 14 14.3922V5.00024C14.553 5.00024 15 4.55224 15 4.00024C15 3.58624 14.748 3.23024 14.39 3.07924ZM5 12.0002H7V7.00024H5V12.0002ZM8 12.0002H10V7.00024H8V12.0002Z" fill="#CF0000"/>
</svg>
