<svg width="17" height="16" viewBox="0 0 17 16" fill="none" xmlns="http://www.w3.org/2000/svg">
<path fill-rule="evenodd" clip-rule="evenodd" d="M12.4998 5.58606L10.9138 4.00006L12.4998 2.41406L14.0858 4.00006L12.4998 5.58606ZM4.08576 14.0001H2.49976V12.4141L9.49976 5.41406L11.0858 7.00006L4.08576 14.0001ZM16.2068 3.29325L13.2068 0.29325C12.8158 -0.09775 12.1838 -0.09775 11.7928 0.29325L0.792756 11.2933C0.604756 11.4812 0.499756 11.7352 0.499756 12.0002V15.0002C0.499756 15.5522 0.947756 16.0002 1.49976 16.0002H4.49976C4.76476 16.0002 5.01976 15.8952 5.20676 15.7072L13.2068 7.70725L16.2068 4.70725C16.5978 4.31625 16.5978 3.68425 16.2068 3.29325Z" fill="black"/>
</svg>
