<svg width="96" height="96" viewBox="0 0 96 96" fill="none" xmlns="http://www.w3.org/2000/svg">
<g filter="url(#filter0_d_26_3507)">
<circle cx="48" cy="44" r="28" fill="#009706"/>
</g>
<path fill-rule="evenodd" clip-rule="evenodd" d="M59.6043 43.0042H48.311V32.3953C48.311 31.8283 47.8513 31.3687 47.2843 31.3687C46.7173 31.3687 46.2576 31.8283 46.2576 32.3953V43.0042H35.6487C35.0817 43.0042 34.6221 43.4639 34.6221 44.0309C34.6221 44.5979 35.0817 45.0575 35.6487 45.0575H46.2576V56.3509C46.2576 56.9179 46.7173 57.3775 47.2843 57.3775C47.8513 57.3775 48.311 56.9179 48.311 56.3509V45.0575H59.6043C60.1713 45.0575 60.631 44.5979 60.631 44.0309C60.631 43.4639 60.1713 43.0042 59.6043 43.0042Z" fill="white"/>
<defs>
<filter id="filter0_d_26_3507" x="0" y="0" width="96" height="96" filterUnits="userSpaceOnUse" color-interpolation-filters="sRGB">
<feFlood flood-opacity="0" result="BackgroundImageFix"/>
<feColorMatrix in="SourceAlpha" type="matrix" values="0 0 0 0 0 0 0 0 0 0 0 0 0 0 0 0 0 0 127 0" result="hardAlpha"/>
<feOffset dy="4"/>
<feGaussianBlur stdDeviation="10"/>
<feComposite in2="hardAlpha" operator="out"/>
<feColorMatrix type="matrix" values="0 0 0 0 0 0 0 0 0 0 0 0 0 0 0 0 0 0 0.25 0"/>
<feBlend mode="normal" in2="BackgroundImageFix" result="effect1_dropShadow_26_3507"/>
<feBlend mode="normal" in="SourceGraphic" in2="effect1_dropShadow_26_3507" result="shape"/>
</filter>
</defs>
</svg>
